<svg width="31" height="21" viewBox="0 0 31 21" fill="none" xmlns="http://www.w3.org/2000/svg">
<path d="M11.1389 19.9835V18.2211M24.2537 8.12873C22.9222 3.04425 18.9103 0.822483 15.0538 1.02957C13.517 1.09992 12.0258 1.57319 10.7297 2.40188C9.43362 3.23057 8.37825 4.38555 7.6695 5.75092C-1.38383 7.30696 -0.294455 18.9029 7.6695 19.9842H8.4818V15.9009L13.7697 12.2551L19.0584 15.9009V19.9842H24.2974C25.782 19.8523 27.163 19.1679 28.1671 18.0664C29.1712 16.965 29.7253 15.5268 29.7198 14.0364C29.7143 12.546 29.1496 11.1119 28.1374 10.0179C27.1252 8.92396 25.7392 8.24976 24.2537 8.12873Z" stroke="#FF9A62" stroke-width="0.729167" stroke-linecap="round" stroke-linejoin="round"/>
</svg>
