<svg width="22" height="22" viewBox="0 0 22 22" fill="none" xmlns="http://www.w3.org/2000/svg">
<path fill-rule="evenodd" clip-rule="evenodd" d="M8.52393 0.99594C9.3598 0.52688 10.1341 0.25 11.0001 0.25C11.8662 0.25 12.6404 0.52688 13.4763 0.99594C14.2862 1.45043 15.2143 2.12145 16.3812 2.96522L17.8903 4.05633C18.8268 4.73347 19.5748 5.2743 20.139 5.77487C20.7216 6.29173 21.1574 6.807 21.4338 7.45513C21.7109 8.10469 21.7779 8.77045 21.7407 9.5381C21.7049 10.2789 21.5675 11.1726 21.3962 12.2871L21.0809 14.3387C20.8376 15.9225 20.6438 17.1837 20.3591 18.1662C20.0647 19.1821 19.65 19.9887 18.9087 20.6052C18.1706 21.2192 17.2912 21.4926 16.2171 21.6231C15.1721 21.75 13.854 21.75 12.189 21.75H9.8112C8.14627 21.75 6.82812 21.75 5.78318 21.6231C4.70903 21.4926 3.8297 21.2192 3.09153 20.6052C2.35028 19.9887 1.93556 19.1821 1.64117 18.1662C1.35647 17.1836 1.16268 15.9225 0.919313 14.3387L0.604053 12.2872C0.432763 11.1727 0.295403 10.2789 0.259533 9.5381C0.222373 8.77045 0.289383 8.10469 0.566423 7.45513C0.842863 6.807 1.27867 6.29173 1.86121 5.77487C2.42541 5.27429 3.17342 4.73346 4.10996 4.05632L5.61899 2.96524C6.78599 2.12145 7.71402 1.45043 8.52393 0.99594ZM8.61442 15.2109C8.17861 14.8717 7.5503 14.95 7.21106 15.3858C6.87182 15.8216 6.9501 16.4499 7.38591 16.7892C8.36419 17.5507 9.6315 18 11.0002 18C12.3689 18 13.6361 17.5507 14.6144 16.7892C15.0502 16.4499 15.1285 15.8216 14.7893 15.3858C14.45 14.95 13.8217 14.8717 13.3859 15.2109C12.7651 15.6942 11.9319 16 11.0002 16C10.0684 16 9.2352 15.6942 8.61442 15.2109Z" fill="#EEB785"/>
</svg>
